<svg xmlns="http://www.w3.org/2000/svg" xml:space="preserve" style="enable-background:new 0 0 297.888 297.888" viewBox="0 0 297.888 297.888"><path d="M218.971 187.618c8.659 8.658 8.659 22.695 0 31.354-8.657 8.658-22.694 8.657-31.352 0l-50.096-50.096c-8.657-8.658-8.659-22.695-.001-31.353 8.659-8.659 22.696-8.658 31.355 0l50.094 50.095z" style="fill:#5c6670"/><circle cx="100.697" cy="100.697" r="100.697" style="fill:#1e252b"/><circle cx="100.697" cy="100.697" r="64.794" style="fill:#5e96dc"/><path d="M186.271 233.504c-13.044-13.042-13.044-34.191 0-47.234 13.043-13.044 34.19-13.043 47.234 0l54.6 54.601c13.044 13.043 13.044 34.19 0 47.234-13.042 13.043-34.19 13.043-47.234 0l-54.6-54.601z" style="fill:#333e48"/></svg>